<?xml version="1.0" encoding="iso-8859-1" ?>
<svg version="1.1" xmlns="http://www.w3.org/2000/svg" xmlns:xlink="http://www.w3.org/1999/xlink" 
    viewBox="0 0 1500 1500" width="1500" height="1500">
    
    
    <!-- ITEM 0 -->
    <g>
        <defs>
            <clipPath id="clip-path-id-viewbox-item-0">
                <rect x="0.0" y="0.0" width="87.3" height="87.4"/>
            </clipPath>
        </defs>
        <g transform="translate(1098.0 169.0) rotate(0.0 57.0 57.0) scale(1.3058419243986255 1.3043478260869565)">
            <g clip-path="url(#clip-path-id-viewbox-item-0)" transform="translate(-0.0 -0.0)">
                

<title>planet_1</title>
<g id="Layer_2-i0">
	<g id="planet_1-i0">
		<path d="M85,29.7c-3.6-9.6-12.9-3.1-10.3,2.4c1.3,2.7-0.8,9.8-11.4,9.5s-15,13.7-1.9,18S74.2,74.8,68,79.9l0,0    c-4.6,3.1-9.8,5.3-15.2,6.5C55.4,71,52,60,26,83.7C16.6,79.6,9.2,72.5,4.7,63.3c-0.3-0.5-0.6-1.2-0.8-1.7    c-2.2-6.7,7.4-14,17.6-5.8c8.9,6.8,17.6-1.7,10.8-11.8c-9.4-13.9,4.9-13.7,7.5-20.7c3.7-9.8-6.2-11.4,1.5-23.3h2.1    C62.2,0,78.9,11.9,85,29.7z" style="fill:#04294F;"></path>
		<path d="M55,14.3c4.7-2.5,8.7,0.3,8.1,5.5s-3.8,15.5-9,7.7C49.7,21,50.2,16.7,55,14.3z" style="fill:#F04E23;"></path>
		<path d="M85.4,30.9c5.6,18.4-1.4,38.3-17.4,49c6.2-5.1,5.6-15.4-7.4-19.8s-7.9-18.8,2.7-18.5    c10.6,0.2,12.7-6.8,11.4-9.5c-2.6-5.5,6.7-12,10.3-2.4C85.1,30,85.4,30.8,85.4,30.9z" style="fill:#F04E23;"></path>
		<path d="M26,83.7c26.8-25.8,30.4-12.9,26.8,2.7l0,0C43.8,88.3,34.4,87.4,26,83.7z" style="fill:#F04E23;"></path>
		<path d="M41.5,0c-7.7,11.8,2.1,13.4-1.5,23.3c-2.6,7-17,6.7-7.5,20.7c6.8,10.1-1.6,19.1-10.5,12.3S1.6,54.9,3.9,61.6    c-9.9-22-0.1-47.9,21.9-57.8C30.7,1.6,36,0.3,41.5,0z" style="fill:#F04E23;"></path>
	</g>
</g>

            </g>
        </g>
    </g>
    
    <!-- ITEM 1 -->
    <g>
        <defs>
            <clipPath id="clip-path-id-viewbox-item-1">
                <rect x="0.0" y="0.0" width="658.8" height="784.0"/>
            </clipPath>
        </defs>
        <g transform="translate(192.0 364.0) rotate(0.0 419.5 498.5) scale(1.2735276259866424 1.2716836734693877)">
            <g clip-path="url(#clip-path-id-viewbox-item-1)" transform="translate(-0.0 -0.0)">
                <title>big_gun</title><g id="Layer_2-i1" data-name="Layer 2"><g id="big_gun-i1"><path d="M462.4,457.3,441,418.6h0l-5.8-10.5h0l-4.4-7.9-16.4-29.6-.1-.7L287.4,331.2h0l-3.8-1.2L.2,243.7l-.2.7L144.1,496.7l90.7,27.6,47.5,14.5v12.8l11.5,3.5,65.6,20V562.3l144.1,43.9,49.2,15ZM327.5,560.9a1.738,1.738,0,0,1-1.1.6,16.551,16.551,0,0,1-3.2-.3,24.685,24.685,0,0,1-6-1.9,15.569,15.569,0,0,1-2.8-1.6,1.4,1.4,0,0,1-.3-1.9h0a1.231,1.231,0,0,1,1-.5,17.2,17.2,0,0,1,3.2.2c1,.2,2.1.4,3.1.7a24.884,24.884,0,0,1,2.9,1.1,11.236,11.236,0,0,1,2.8,1.6,1.368,1.368,0,0,1,.4,2Zm28.1,1.3h-.1c-3-.7-6-1.5-9-2.2l-9-2.4c-6-1.6-11.9-3.5-17.8-5.2-5.9-1.9-11.8-3.7-17.7-5.6l-8.8-3c-2.9-1.1-5.8-2.1-8.7-3.2h-.1a1.582,1.582,0,0,1-.9-2.1,1.7,1.7,0,0,1,2-1l71.1,21.6a1.584,1.584,0,0,1,1.1,2h0A1.883,1.883,0,0,1,355.6,562.2ZM236.2,511.4l-79.1-24.1L34.4,272.4l.2-.6,91.2,27.9,166,50.7,29.2,8.9L359.3,371h0l43.4,13.3.1.6,9.2,16.7,3.5,6.3,2.7,4.9,33.9,61.4h0l68.5,124.1Z" fill="#00aee0"></path><path d="M452.1,474h0l-33.9-61.4-2.7-4.9-3.5-6.3-9.2-16.7-.1-.6-43.4-13.3h0L321,359.1l-29.2-8.9L125.7,299.6,34.5,271.8l-.2.6L157,487.2l79.1,24.1L520.4,598Zm-282.8,1.7L67.4,299.1,215,344l99.6,176Zm173.4,53.5L240.8,352.7l147.7,44.9L488,573.4Z" fill="#04294f"></path><path d="M382.6,404.9,259.4,367.4l89.1,154.5,121.2,36.9Zm-61.5,18.5,7.8-7.6,32.6,33.7,10-19.8,11.7,5.9-12,23.9,35.3,36.4-7.8,7.6-32.6-33.7-10,19.8-11.7-5.9,12-24Z" fill="#04294f"></path><path d="M209.2,351.4,86,313.9l89.1,154.5,121.2,36.9Zm-50.4,68,9.7-8.8L184,427.7l21.7-45.8,11.8,5.6-30.1,63.4Z" fill="#04294f"></path><polygon points="283.7 330 287.5 331.2 414.4 369.8 422.7 361.4 268.7 315.5 10.8 238.7 0 243.7 0.2 243.7 283.7 330" fill="#04294f"></polygon><path d="M477.4,460.5l-4-7.2-12.8-23.2-17.1-31-20.8-37.7-8.2,8.4.1.7L431,400.1l4.4,7.9h0l5.8,10.4h0l21.4,38.8,90.3,163.7,3.6-7.8c.6-1.7,1.3-3.5,1.9-5.2-6-10-11.9-20-17.6-30.1l-8.7-15.5-8.5-15.5-16.8-31.2c-5-9.6-10.1-19.3-14.9-29l-3.9-7-.1-.1Z" fill="#fff"></path><path d="M215,344,67.4,299.1,169.3,475.7,314.7,520ZM175.1,468.4,86,313.9l123.2,37.5,87.1,153.9Z" fill="#00aee0"></path><path d="M388.4,397.6,240.7,352.7,342.6,529.3,488,573.4ZM348.5,521.9,259.4,367.4l123.2,37.5,87.1,153.9Z" fill="#f04e23"></path><polygon points="344.4 483.7 356.1 489.6 366 469.7 398.7 503.4 406.5 495.8 371.2 459.4 383.2 435.5 371.5 429.6 361.6 449.4 328.9 415.8 321.1 423.4 356.4 459.8 344.4 483.7" fill="#f04e23"></polygon><polygon points="205.7 381.9 184 427.7 168.4 410.6 158.8 419.4 187.4 450.9 217.6 387.5 205.7 381.9" fill="#00aee0"></polygon><path d="M523.5,546.9l8.5,15.5,8.7,15.5c5.7,10.1,11.6,20.2,17.6,30.2-.7,1.7-1.3,3.5-1.9,5.2-.4,1-.7,2-1.1,3a.481.481,0,0,0,.2.6c.3.1.6.1.7-.2,1.6-2.7,3.1-5.5,4.5-8.3a.908.908,0,0,0,0-1l-.1-.1c-5.3-10.6-10.8-21-16.4-31.4l-8.5-15.6-8.6-15.5c-5.8-10.3-11.6-20.6-17.5-30.8s-11.9-20.4-18.1-30.5a.806.806,0,0,0-.9-.3.687.687,0,0,0-.3.9h0l1.3,2.5c4.9,9.8,9.9,19.4,14.9,29C512.2,526.1,517.8,536.5,523.5,546.9Z" fill="#00aee0"></path><path d="M356.4,559l-71.1-21.6a1.7,1.7,0,0,0-2,1,1.667,1.667,0,0,0,.9,2.1h.1c2.9,1.1,5.8,2.2,8.7,3.2l8.8,3c5.9,2,11.8,3.8,17.7,5.6,6,1.7,11.9,3.5,17.8,5.2l9,2.4c3,.7,6,1.5,9,2.2h.1a1.6,1.6,0,0,0,1.9-1.1,1.359,1.359,0,0,0-.9-2Z" fill="#04294f"></path><path d="M324.4,557.4c-1-.4-1.9-.8-2.9-1.1a28.17,28.17,0,0,0-3.1-.7,11.5,11.5,0,0,0-3.2-.2,1.231,1.231,0,0,0-1,.5,1.417,1.417,0,0,0,.3,1.9h0a15.569,15.569,0,0,0,2.8,1.6,24.685,24.685,0,0,0,6,1.9,17.329,17.329,0,0,0,3.2.3,1.382,1.382,0,0,0,1.1-.6,1.443,1.443,0,0,0-.3-2h0A11.815,11.815,0,0,0,324.4,557.4Z" fill="#04294f"></path><path d="M312.3,270.1l-6.9,7.2-.5.5h.1l7.5-7.8-.2.1Z" fill="none"></path><path d="M637,77.2a1.933,1.933,0,0,1-.1-2.8,1.38,1.38,0,0,1,.4-.3l13.3-8.8a1.954,1.954,0,0,0,.6-2.7,1.991,1.991,0,0,0-1.2-.8l-16.6-4.2a1.993,1.993,0,0,1-1.5-2.2l4.9-28.7a1.951,1.951,0,0,0-1.6-2.3,2.052,2.052,0,0,0-1.7.5l-23.9,22a2.023,2.023,0,0,1-2.8-.1c-.1-.1-.2-.2-.2-.3l-4.5-7.3a2.081,2.081,0,0,0-2.7-.7,2.361,2.361,0,0,0-.8.9l-4.9,10.8a1.872,1.872,0,0,1-2.5,1L568.5,42a1.918,1.918,0,0,0-2.5,1.1,1.7,1.7,0,0,0,0,1.4l8.8,24.4a2.007,2.007,0,0,1-.6,2.2l-15.1,12a1.942,1.942,0,0,0-.3,2.8,1.91,1.91,0,0,0,1.4.7l15.1,1a2.019,2.019,0,0,1,1.8,1.7l.5,4.8a2.031,2.031,0,0,0,1.5,1.7l3.5.8,4.6-2.5a20.116,20.116,0,1,1,26.4,10.6,19.584,19.584,0,0,1-7.9,1.6c-.7,0-1.4-.1-2.1-.1l1.5,8.4a1.951,1.951,0,0,0,2.3,1.6,1.991,1.991,0,0,0,1.2-.8l2-2.7a1.843,1.843,0,0,1,2.7-.4h0l15.8,11.6a1.911,1.911,0,0,0,2.7-.4,2.2,2.2,0,0,0,.4-1.3l-1.8-22.3a1.9,1.9,0,0,1,1.7-2.1L651.4,95a2,2,0,0,0,1.7-2.2,2.281,2.281,0,0,0-.6-1.2Z" fill="#00aee0"></path><path d="M626,85.9a20.1,20.1,0,0,0-40.2,0,19.584,19.584,0,0,0,1.6,7.9l11.4-7.6a5.76,5.76,0,0,1,8.6,6.8l-4.7,12.8,1.2.1a14.769,14.769,0,0,0,2.1.1,20.08,20.08,0,0,0,20-20.1Z" fill="#ffb400"></path><path d="M582.4,117a74.026,74.026,0,0,0-8.1-5.7,53.578,53.578,0,0,0-8.6-4.4c-.4-.1-.7-.3-1.1-.4l-24,13.3a139.142,139.142,0,0,1,27.3,16.8,136.985,136.985,0,0,1,20.8,20.2l7.1-25.9a46.5,46.5,0,0,0-6.1-7.2A57.4,57.4,0,0,0,582.4,117Z" fill="#04294f"></path><path d="M529.9,182.4A220.548,220.548,0,0,0,504.4,165a153.144,153.144,0,0,0-24.1-11.7l-49,27.2c20.9,6.5,45.8,20,69.9,38.9s43.1,39.9,54.5,58.6l14.7-54a160.5,160.5,0,0,0-17.6-21A202.9,202.9,0,0,0,529.9,182.4Z" fill="#04294f"></path><path d="M561.2,145.1a151.688,151.688,0,0,0-16.8-11.6,104.983,104.983,0,0,0-15-7.5L494,145.6c5.7,2.5,11.3,5.2,16.7,8.2A226.128,226.128,0,0,1,537.9,172c13.5,10.7,26.2,22.7,36.7,36.7l10.7-39.5a113.133,113.133,0,0,0-9-10.5A150.729,150.729,0,0,0,561.2,145.1Z" fill="#04294f"></path><path d="M607.3,92.9a5.739,5.739,0,0,0-3.4-7.4,5.967,5.967,0,0,0-5.2.6l-11.4,7.6-4.6,2.5-9.1,5.1a66.818,66.818,0,0,1,14.2,8.7,71.469,71.469,0,0,1,10.7,10.6l4.1-15Z" fill="#04294f"></path><path d="M501.3,219.3c-24.2-18.9-49-32.4-69.9-38.9-22.1-6.9-39.8-6.2-47.7,3.8l-3,3.1a1.529,1.529,0,0,1,.3,1.8,56.612,56.612,0,0,1-6.2,9.9,102.9,102.9,0,0,1-7.4,8.7,67.869,67.869,0,0,1-8.4,7.7,40.717,40.717,0,0,1-4.8,3.3,28.065,28.065,0,0,1-5.5,2.7,1.436,1.436,0,0,1-1.4-.3l-18.8,19.1c19.7-16.1,73.4,1.3,124.2,41.1s80.4,87.8,69.6,110.8l41.2-67c7.9-10,4.4-27.4-7.6-47.2C544.4,259.2,525.4,238.3,501.3,219.3Zm-108-.3a42.148,42.148,0,0,1-4.8,3.5c-.8.5-1.7,1.1-2.6,1.6s-1.7,1.1-2.6,1.6a1.5,1.5,0,0,1-2.1-.6,1.72,1.72,0,0,1-.1-1.4c.4-.9.9-1.9,1.3-2.8.5-.9.9-1.8,1.3-2.7,1-1.7,2-3.4,3.1-5.1a81.314,81.314,0,0,1,7.5-9,64.306,64.306,0,0,1,8.3-8.2,42.148,42.148,0,0,1,4.8-3.5c.8-.5,1.7-1.1,2.6-1.6s1.7-1.1,2.6-1.6a1.577,1.577,0,0,1,2.1.5.1.1,0,0,0,.1.1,1.691,1.691,0,0,1,.1,1.4c-.4.9-.9,1.9-1.3,2.8-.5.9-.9,1.8-1.4,2.7-1,1.7-2,3.4-3.1,5.1a81.314,81.314,0,0,1-7.5,9,71.47,71.47,0,0,1-8.3,8.2Zm26.9,10a63.733,63.733,0,0,1-9.7,7.4,1.624,1.624,0,0,1-2.2-.5h0a1.392,1.392,0,0,1-.1-1.4,73.772,73.772,0,0,1,5.8-10.7c2.2-3.3,4.6-6.5,7.1-9.6a74.771,74.771,0,0,1,8.2-8.7c1.5-1.3,3.1-2.6,4.7-3.8a30.042,30.042,0,0,1,5.4-3.3,1.443,1.443,0,0,1,1.8.6h0a1.412,1.412,0,0,1,.1.9,29.525,29.525,0,0,1-2.4,5.8,55.405,55.405,0,0,1-3,5.3,84.229,84.229,0,0,1-7.3,9.4,97.26,97.26,0,0,1-8.4,8.6Zm24.5,13.2a45.087,45.087,0,0,1-4.7,4,44.076,44.076,0,0,1-5.3,3.5,1.373,1.373,0,0,1-1.8-.6h0a1.412,1.412,0,0,1-.1-.9,48.378,48.378,0,0,1,2.2-6c.9-1.9,1.9-3.7,2.9-5.5a74.677,74.677,0,0,1,7.2-9.8,116.509,116.509,0,0,1,8.3-8.9,60.581,60.581,0,0,1,9.6-7.8,1.6,1.6,0,0,1,2.2.4h0a1.392,1.392,0,0,1,.1,1.4,66.974,66.974,0,0,1-5.6,11,111.2,111.2,0,0,1-6.9,10,79.533,79.533,0,0,1-8.1,9.2Zm22.2,15a66.572,66.572,0,0,1-9.4,8.2,1.6,1.6,0,0,1-2.2-.4,1.4,1.4,0,0,1-.2-1.4,61.584,61.584,0,0,1,5.4-11.3,113.339,113.339,0,0,1,6.7-10.3,88.4,88.4,0,0,1,7.8-9.4,60.157,60.157,0,0,1,4.6-4.2,33.416,33.416,0,0,1,5.3-3.7,1.334,1.334,0,0,1,1.8.5h0a.972.972,0,0,1,.1.9,33.851,33.851,0,0,1-2.1,6.1,58.478,58.478,0,0,1-2.8,5.6,99.937,99.937,0,0,1-6.9,10.1,80.588,80.588,0,0,1-8.1,9.3Zm21.3,17.5a62.514,62.514,0,0,1-4.5,4.4,50.349,50.349,0,0,1-5.2,3.9,1.252,1.252,0,0,1-1.8-.5h0a1.486,1.486,0,0,1-.2-.9,34.465,34.465,0,0,1,2-6.2q1.2-2.85,2.7-5.7a87.647,87.647,0,0,1,6.7-10.4,120.526,120.526,0,0,1,7.9-9.5,74.94,74.94,0,0,1,9.2-8.6,1.579,1.579,0,0,1,2.2.3,1.4,1.4,0,0,1,.2,1.4,78.85,78.85,0,0,1-5.1,11.5,114.218,114.218,0,0,1-6.5,10.5,82.466,82.466,0,0,1-7.6,9.8Zm10.2,28.4a1.668,1.668,0,0,1-2.2-.2,1.735,1.735,0,0,1-.3-1.4,70.569,70.569,0,0,1,4.9-11.7,116.847,116.847,0,0,1,6.3-10.8,88.993,88.993,0,0,1,7.4-10,46.737,46.737,0,0,1,4.4-4.5,39.021,39.021,0,0,1,5.1-4,1.3,1.3,0,0,1,1.8.4,1.486,1.486,0,0,1,.2.9,37.273,37.273,0,0,1-1.8,6.3,60.32,60.32,0,0,1-2.6,5.8,88.5,88.5,0,0,1-6.5,10.6,122.992,122.992,0,0,1-7.7,9.8,83.41,83.41,0,0,1-9,8.8Zm52.1,11.7a54.677,54.677,0,0,1,5.1-4.5,1.28,1.28,0,0,1,1.8.3,1.163,1.163,0,0,1,.2,1,36.573,36.573,0,0,1-1.7,6.5,64.351,64.351,0,0,1-2.4,6.1,95.15,95.15,0,0,1-6.2,11.3,112.544,112.544,0,0,1-7.5,10.6,74.193,74.193,0,0,1-8.9,9.7,1.573,1.573,0,0,1-2.2-.1,1.436,1.436,0,0,1-.3-1.4A75.705,75.705,0,0,1,533,342a125.509,125.509,0,0,1,6-11.5,83.461,83.461,0,0,1,7.2-10.7,34.345,34.345,0,0,1,4.3-5ZM541,282.3a1.577,1.577,0,0,1,2.2.2,1.735,1.735,0,0,1,.3,1.4,71.431,71.431,0,0,1-4.6,11.9,105.855,105.855,0,0,1-6,11,91.485,91.485,0,0,1-7.3,10.3c-1.4,1.6-2.8,3.2-4.4,4.7a29.224,29.224,0,0,1-5.1,4.2,1.3,1.3,0,0,1-1.8-.4,1.486,1.486,0,0,1-.2-.9,41.589,41.589,0,0,1,1.7-6.3,60.7,60.7,0,0,1,2.4-5.9,79.028,79.028,0,0,1,6.3-10.9,105.6,105.6,0,0,1,7.5-10.1A71.063,71.063,0,0,1,541,282.3Z" fill="#00aee0"></path><path d="M547.3,724.8c-7.6,19.9-40,27.8-51.6,30.7-27.9,6.8-64.8,10.6-103.9,10.6a528.265,528.265,0,0,1-71.1-4.5h0l-1.4-.2h0c-8.1-1.1-15.9-2.5-23.2-4h0c-2.9-.6-5.6-1.2-8.3-1.9-11.6-2.8-43.9-10.8-51.6-30.7a24.639,24.639,0,0,1,.9-19.9c-9.7,18.9-4.7,35.7,1.8,43h0c10.8,16.1,38.4,22.8,48.9,25.4,27.9,6.9,64.8,10.7,103.9,10.7h.1c39.1,0,76-3.8,103.9-10.7,10.5-2.6,38.1-9.3,48.9-25.4h0c6.5-7.3,11.5-24.1,1.9-43a25.056,25.056,0,0,1,.8,19.9Z" fill="#04294f"></path><path d="M533.5,715.8c0,19.2-63.5,34.8-141.8,34.8a499.966,499.966,0,0,1-62.4-3.6h0c-3.1-.4-6.1-.8-9.1-1.2h0c-5.4-.8-10.6-1.6-15.5-2.6h0c-33.4-6.4-54.8-16.4-54.8-27.5l2.3-8.4,5.8-21.1c-8.6,4.3-16.6,10.1-20.7,18l-.3.6a25.048,25.048,0,0,0-.9,19.9c7.7,19.9,40,27.8,51.6,30.7,2.7.7,5.5,1.3,8.3,1.9h0c7.3,1.5,15,2.9,23.2,4h0l1.4.2h0a528.265,528.265,0,0,0,71.1,4.5c39.1,0,76-3.8,103.9-10.6,11.6-2.8,43.9-10.8,51.6-30.7a24.639,24.639,0,0,0-.9-19.9l-.3-.6c-4-7.8-12-13.7-20.7-18l5.8,21.1Z" fill="#00aee0"></path><path d="M359.4,562.2V575l-65.6-20h0l-69.4-21.1-11.7,14.9h0l-2.9,3.7h0l-10.4,13.3h0l-2.9,3.7h0L186,582.8h0l-2.5,3.2h0L170,603.2h0l214.3,65.3,36.1-74.9,7.4,16.5-34.2,55.5-5.9,9.6h0L274.1,640.7h0l-3.4-1.1-12.8,46.8-5.8,21.1-2.3,8.4c0,11.2,21.5,21.1,54.8,27.5h0c4.9.9,10.1,1.8,15.5,2.6h0c3,.4,6,.8,9.1,1.2h0a542.649,542.649,0,0,0,62.4,3.6c78.3,0,141.8-15.6,141.8-34.8l-2.3-8.4-5.8-21.1-22-80.2Zm-153.3,5.6,21.2,6.5,9.5-13.6-20.3-6.2,2.9-3.7,20,6.1,6.7-9.6,4.4,1.3-6.7,9.6,24,7.3,6.4-9.7,4.4,1.3-6.4,9.7,24.1,7.3,6.1-9.8,4.4,1.3-6.1,9.8,24.2,7.4,5.8-9.8,4.3,1.3-5.8,9.9,24.3,7.3,5.5-10,4.3,1.3-5.5,10,24.3,7.4,5.2-10.1,4.2,1.3-5.2,10.1,20.1,6.1-1.9,4-20.3-6.2-7.3,14.2,20.7,6.3-2,4.1-20.8-6.3L367.4,638l21.2,6.5-1.9,4L365.4,642l-6.2,12-4.2-1.3,6.2-12-25.5-7.8-6.5,11.9-4.3-1.3,6.5-11.9-25.5-7.8L299,635.6l-4.3-1.3,6.9-11.8-25.4-7.7L269,626.5l-4.4-1.3,7.2-11.6-25.4-7.7-7.6,11.5-4.4-1.3,7.6-11.5-25.3-7.7-8,11.4-4.4-1.3,8-11.4-22.7-6.9,2.9-3.7,22.4,6.8,9.6-13.7L203,571.6Zm216,70.8a.56.56,0,0,1,.6-.5h0a.472.472,0,0,1,.5.5c1.3,8.4,2.2,16.9,3.1,25.3.8,8.5,1.4,16.9,1.9,25.4.3,4.2.5,8.5.7,12.7s.4,8.5.6,12.7c.3,8.5.6,17,.6,25.5a.684.684,0,0,1-.7.7.73.73,0,0,1-.7-.6c-1.1-8.4-2-16.9-2.8-25.3-.4-4.2-.8-8.5-1.1-12.7s-.7-8.5-1-12.7c-.6-8.5-1.1-16.9-1.5-25.4C422.1,655.6,421.9,647.1,422.1,638.6ZM284.4,700.2c-.7,2.9-1.5,5.9-2.3,8.7-1.6,5.8-3.3,11.7-5.1,17.5a.751.751,0,0,1-.9.4.569.569,0,0,1-.4-.7c.8-6,1.9-12,3-17.9.6-3,1.1-5.9,1.8-8.9.6-3,1.2-5.9,1.9-8.9,1.3-5.9,2.7-11.8,4.3-17.6s3.3-11.6,5.4-17.4a.517.517,0,0,1,.7-.3.486.486,0,0,1,.3.6c-.6,6.1-1.6,12-2.7,18s-2.4,11.8-3.8,17.7C285.9,694.3,285.2,697.3,284.4,700.2Zm38.7,6.4c-.3,2.1-.7,4.1-1.1,6.2-.8,4.1-1.6,8.2-2.7,12.3a.657.657,0,0,1-.8.5.634.634,0,0,1-.5-.6c0-4.2.2-8.4.5-12.6.2-2.1.3-4.2.5-6.3s.4-4.2.7-6.2c.4-4.2,1.1-8.3,1.8-12.4a100.056,100.056,0,0,1,2.9-12.3.559.559,0,0,1,1.1.1,108,108,0,0,1-.2,12.7c-.3,4.2-.7,8.4-1.3,12.5-.2,2-.5,4.1-.9,6.1ZM357,719.7c-.2,2.7-.5,5.3-.8,7.9-.6,5.3-1.3,10.5-2.2,15.8a.618.618,0,0,1-.8.5h0a.634.634,0,0,1-.5-.6q-.3-7.95,0-15.9c.1-2.7.2-5.3.3-8s.2-5.3.4-7.9c.3-5.3.8-10.6,1.3-15.8a126.336,126.336,0,0,1,2.5-15.8.552.552,0,0,1,1.1.1c.4,5.3.4,10.6.3,16q-.15,7.95-.9,15.9c-.2,2.5-.5,5.1-.7,7.8Zm34.2,23.6c-.6-4.7-.9-9.5-1.1-14.2-.1-2.4-.2-4.7-.3-7.1,0-2.4-.1-4.7-.1-7.1-.1-4.7,0-9.5.2-14.2a136.484,136.484,0,0,1,1.4-14.2.5.5,0,0,1,1,0,133.848,133.848,0,0,1,1.4,14.2c.2,4.7.3,9.5.2,14.2,0,2.4,0,4.7-.1,7.1s-.2,4.7-.3,7.1c-.2,4.7-.5,9.5-1.1,14.2a.618.618,0,0,1-.8.5c-.1,0-.3-.2-.4-.5Zm89.3-137.1a.548.548,0,0,1,.6.4c3.1,9.8,5.7,19.6,8.2,29.6,2.6,9.9,4.9,19.8,7.1,29.8l3.3,15c1.1,5,2.2,10,3.2,15,2.1,10,4,20,5.8,30.1,0,.4-.2.7-.6.7a.67.67,0,0,1-.7-.4c-2.8-9.8-5.5-19.7-8-29.6-1.3-5-2.5-9.9-3.7-14.9s-2.4-9.9-3.5-14.9c-2.4-9.9-4.6-19.9-6.6-29.9s-4-20.1-5.5-30.2a.529.529,0,0,1,.4-.7Zm-31-9.6a.675.675,0,0,1,.6.4c2.2,11.4,4,22.9,5.7,34.4s3.2,23,4.6,34.6c.7,5.8,1.4,11.5,2.1,17.3s1.3,11.6,1.9,17.3c1.2,11.6,2.4,23.1,3.3,34.7,0,.4-.2.7-.6.7h0a.752.752,0,0,1-.7-.5c-2-11.5-3.8-22.9-5.5-34.5-.8-5.7-1.7-11.5-2.4-17.3-.8-5.8-1.6-11.5-2.3-17.3-1.5-11.5-2.9-23.1-4.1-34.6-1.2-11.6-2.3-23.1-3-34.8-.1-.1.1-.4.4-.4Z" fill="#04294f"></path><path d="M452.6,281.4c-50.8-39.8-104.5-57.2-124.2-41.1l-3.1,3.1c-3.6,4.6-5,10.7-4.4,17.9l1.1-1.2a19.977,19.977,0,0,1,20.1-5.1l90.3,27.4A40.935,40.935,0,0,1,456,301.2l45.7,79.5a19.9,19.9,0,0,1-.3,20.4l-2.3,3.7c9.1-.5,16.3-3.4,20.6-9l2.3-3.7C533.1,369.2,503.4,321.2,452.6,281.4Z" fill="#04294f"></path><path d="M522.2,392.2l-2.3,3.7A20.624,20.624,0,0,0,522.2,392.2Z" fill="#00aee0"></path><polygon points="287.5 331.2 287.5 331.2 283.7 330 287.5 331.2" fill="#ffb400"></polygon><path d="M393.2,287.5l29.7,9Z" fill="#ffb400"></path><path d="M501.9,380.7l-45.7-79.5a41.247,41.247,0,0,0-23.6-18.8L342.3,255a19.977,19.977,0,0,0-20.1,5.1l-1.1,1.2-1.3,1.3,27.5,7.8a15.247,15.247,0,0,1,10.9,12.7c3.1.8,5.2,2.3,5.2,4.2,0,2.6-4.2,4.7-9.3,4.7-5.2,0-9.3-2.1-9.3-4.7,0-1.7,1.9-3.3,4.7-4a6.39,6.39,0,0,0-4.5-4.5l-29.9-8.5a5.242,5.242,0,0,0-2.5-.3l-7.5,7.8,27.7,7.9a15.247,15.247,0,0,1,10.9,12.7c3.1.8,5.2,2.3,5.2,4.2,0,2.6-4.2,4.7-9.3,4.7-5.2,0-9.3-2.1-9.3-4.7,0-1.7,1.9-3.3,4.7-4a6.39,6.39,0,0,0-4.5-4.5l-29.9-8.5c-2-.5-2.6-.2-2.6-.2h0l-6.9,7.2-2.6,2.7,27.5,7.8a15.247,15.247,0,0,1,10.9,12.7c3.1.8,5.2,2.3,5.2,4.2,0,2.6-4.2,4.7-9.3,4.7-5.2,0-9.3-2.1-9.3-4.7,0-1.7,1.9-3.3,4.7-4a6.436,6.436,0,0,0-4.4-4.5L284,303.1c-2-.5-2.6-.2-2.6-.2h0l-6.9,7.2-3,3.1v-.1l-2.4,2.4,154,45.9,20.8,37.7c5.1-5.3,11.3-8.4,18-8.4,6.1,0,11.9,2.6,16.8,7.2h0l13.8,12.2c.9.6,1.8,1.4,2.7,2.1l4.5-7.3h0l2.3-3.7A21.326,21.326,0,0,0,501.9,380.7ZM379,292.4a2.728,2.728,0,0,1-1.8-3.5,2.384,2.384,0,0,1,.6-1.1l6.3-6.8a4.453,4.453,0,0,1,4.4-1.2l34.4,10.4a2.728,2.728,0,0,1,1.8,3.5,4.053,4.053,0,0,1-.5.9l-1.3,1.7-5.1,6.3a2.659,2.659,0,0,1-3,.9l-32.7-10.3h0Zm8.5,15.3c-2.7-.9-5.5-1.9-8.2-3a82.462,82.462,0,0,1-8-3.7.651.651,0,0,1-.2-.9.713.713,0,0,1,.6-.3c2.9.4,5.8.9,8.6,1.5,2.8.7,5.6,1.4,8.4,2.3a79.815,79.815,0,0,1,8.2,2.9,57.939,57.939,0,0,1,7.9,3.9.627.627,0,0,1,.2.8.55.55,0,0,1-.5.3,50.741,50.741,0,0,1-8.7-1.3c-2.7-.8-5.5-1.6-8.3-2.5Zm40.6,8.2-4.8,6.3q-4.8,6.3-9.9,12.3c-3.4,4-7,7.9-10.8,11.6a.6.6,0,0,1-.8,0h0a.471.471,0,0,1-.1-.6,144.609,144.609,0,0,1,8.7-13.3c3-4.3,6.3-8.5,9.6-12.6,1.6-2.1,3.3-4.1,5-6.2,1.7-2,3.4-4,5.1-6.1,3.4-4,6.9-7.9,10.6-11.7a.561.561,0,0,1,.9,0,.605.605,0,0,1,.1.8c-2.8,4.5-5.8,8.8-8.9,13.1-1.6,2.2-3.1,4.3-4.7,6.4Zm13.6,42.9c-2.3,0-4.2-3.4-4.2-7.6s1.9-7.6,4.2-7.6,4.2,3.4,4.2,7.6C445.9,355.3,444,358.8,441.7,358.8Zm12.7-19.1c-2.3,0-4.2-3.4-4.2-7.6s1.9-7.6,4.2-7.6,4.2,3.4,4.2,7.6S456.7,339.7,454.4,339.7Z" fill="#ffb400"></path><polygon points="387.7 675.2 393.6 665.6 427.8 610.1 420.4 593.6 384.3 668.5 384.6 669.1 387.7 675.2" fill="#fff"></polygon><path d="M325.4,243.4l3.1-3.1A15.18,15.18,0,0,0,325.4,243.4Z" fill="#00aee0"></path><polygon points="274.1 640.7 387.7 675.2 387.7 675.2 387.7 675.2 387.7 675.2 384.6 669.1 384.3 668.5 170 603.2 174 610.2 260.7 636.6 260.7 636.6 270.7 639.6 274.1 640.7" fill="#00aee0"></polygon><path d="M358.2,286.2c-.2,2.3-2.1,2.7-4.4,2.7h-.3c-2.4-.2-4.2-1-4-3.4a5.344,5.344,0,0,0-.3-2.2c-2.8.8-4.7,2.3-4.7,4,0,2.6,4.2,4.7,9.3,4.7,5.2,0,9.3-2.1,9.3-4.7,0-1.8-2.1-3.4-5.2-4.2A8.386,8.386,0,0,1,358.2,286.2Z" fill="#04294f"></path><path d="M343.7,301.5c-.2,2.3-2.1,2.7-4.4,2.7H339c-2.4-.2-4.2-1-4-3.4a5.344,5.344,0,0,0-.3-2.2c-2.8.8-4.7,2.3-4.7,4,0,2.6,4.2,4.7,9.3,4.7,5.2,0,9.3-2.1,9.3-4.7,0-1.8-2.1-3.4-5.2-4.2A8.386,8.386,0,0,1,343.7,301.5Z" fill="#04294f"></path><path d="M326.8,318.9c-.2,2.3-2.1,2.7-4.4,2.7h-.3c-2.4-.2-4.2-1-4-3.4a5.344,5.344,0,0,0-.3-2.2c-2.8.8-4.7,2.3-4.7,4,0,2.6,4.2,4.7,9.3,4.7,5.2,0,9.3-2.1,9.3-4.7,0-1.8-2.1-3.4-5.2-4.2A8.386,8.386,0,0,1,326.8,318.9Z" fill="#04294f"></path><path d="M274,310.1l6.9-7.2h0s.6-.3,2.6.2l29.9,8.5a6.094,6.094,0,0,1,4.4,4.5,8.329,8.329,0,0,1,.3,2.2c-.2,2.4,1.6,3.2,4,3.4h.3c2.3,0,4.2-.5,4.4-2.7a15.062,15.062,0,0,0-.1-3,15.268,15.268,0,0,0-10.9-12.7l-27.5-7.8,2.6-2.7,6.9-7.2h0s.6-.3,2.6.2l29.9,8.5a6.39,6.39,0,0,1,4.5,4.5,8.329,8.329,0,0,1,.3,2.2c-.2,2.4,1.6,3.2,4,3.4h.3c2.3,0,4.2-.5,4.4-2.7a15.062,15.062,0,0,0-.1-3A15.268,15.268,0,0,0,332.8,286L305,278.1h-.1l.5-.5,6.9-7.2h.1a5.4,5.4,0,0,1,2.5.3l29.9,8.5a6.39,6.39,0,0,1,4.5,4.5,8.329,8.329,0,0,1,.3,2.2c-.2,2.4,1.6,3.2,4,3.4h.3c2.3,0,4.2-.5,4.4-2.7a15.062,15.062,0,0,0-.1-3,15.268,15.268,0,0,0-10.9-12.7l-27.5-7.8-2.4-.7c-4.2-1.1-7.6-.7-10.2,1.3-2.8,2.2-3.9,5.7-4.2,9h0c-.2,1.7-.3,3.5-.4,4.9-4.1-1-7.4-.5-9.9,1.4-2.8,2.2-3.9,5.7-4.2,9h0a48.408,48.408,0,0,0-.4,7.6L286,295c-4.2-1.1-7.6-.7-10.2,1.3-2.8,2.2-3.8,5.7-4.2,9h0a54.95,54.95,0,0,0-.4,8.1v.1Z" fill="#f04e23"></path><path d="M485.7,407.4a15.263,15.263,0,0,0-3-.3c-10,0-18.5,9.5-22.1,23l12.7,23.2a31,31,0,0,1-1.4-9.6c0-10.7,4.8-19.4,10.7-19.4s10.7,8.7,10.7,19.4-4.8,19.4-10.7,19.4a7.329,7.329,0,0,1-5.3-2.6l10.5,19a13.355,13.355,0,0,0,1.8-.7c9.8-4.5,16.9-18.5,16.9-35,0-13.4-4.7-25.2-11.7-31.5a13.948,13.948,0,0,0-2.7-2.1A16.5,16.5,0,0,0,485.7,407.4Z" fill="#f04e23"></path><path d="M482.7,463.1c5.9,0,10.7-8.7,10.7-19.4s-4.8-19.4-10.7-19.4S472,433,472,443.7a34.836,34.836,0,0,0,1.4,9.6l4,7.2A7.155,7.155,0,0,0,482.7,463.1Z" fill="#ffb400"></path><path d="M487.9,479.6l1.7-.8h0a13.355,13.355,0,0,1-1.8.7Z" fill="#04294f"></path><path d="M482.7,407.1a15.263,15.263,0,0,1,3,.3,18.186,18.186,0,0,1,6.4,2.7l-13.8-12.2h0c-4.9-4.6-10.6-7.2-16.8-7.2-6.7,0-12.9,3.1-18,8.4l17.1,31C464.1,416.6,472.7,407.1,482.7,407.1Z" fill="#04294f"></path><circle cx="621.5" cy="142" r="4.4" fill="#00aee0"></circle><circle cx="588.2" cy="34" r="4.4" fill="#00aee0"></circle><path d="M640.5,124.1a2.7,2.7,0,1,0,2.7,2.7h0A2.689,2.689,0,0,0,640.5,124.1Z" fill="#00aee0"></path><path d="M656.1,45.8a2.7,2.7,0,1,0,2.7,2.7,2.689,2.689,0,0,0-2.7-2.7Z" fill="#00aee0"></path><circle cx="628.5" cy="191.6" r="2.7" fill="#00aee0"></circle><circle cx="549.1" cy="71.7" r="2.7" fill="#00aee0"></circle><path d="M441.7,343.5c-2.3,0-4.2,3.4-4.2,7.6s1.9,7.6,4.2,7.6,4.2-3.4,4.2-7.6S444,343.5,441.7,343.5Z" fill="#04294f"></path><path d="M454.4,324.4c-2.3,0-4.2,3.4-4.2,7.6s1.9,7.6,4.2,7.6,4.2-3.4,4.2-7.6S456.7,324.4,454.4,324.4Z" fill="#04294f"></path><path d="M414.8,303.7a2.823,2.823,0,0,0,3-.9l5.1-6.3-29.7-9a4.82,4.82,0,0,0-4.8,1.3l-4.8,5.2-1.6-.5h0Z" fill="#00aee0"></path><path d="M388.5,288.8a4.763,4.763,0,0,1,4.8-1.3h0l29.7,9,1.3-1.7a2.839,2.839,0,0,0-.5-3.9,4.053,4.053,0,0,0-.9-.5L388.5,280a4.246,4.246,0,0,0-4.4,1.2l-6.3,6.8a2.808,2.808,0,0,0,.1,3.9,2.384,2.384,0,0,0,1.1.6l3.1,1,1.6.5Z" fill="#04294f"></path><path d="M405.1,311.1a.54.54,0,0,0-.2-.8,44.63,44.63,0,0,0-7.9-3.9c-2.7-1.1-5.5-2-8.2-2.9-2.8-.8-5.6-1.6-8.4-2.3a61.85,61.85,0,0,0-8.6-1.5c-.4,0-.7.2-.7.6a.6.6,0,0,0,.3.6,72.759,72.759,0,0,0,8,3.7c2.7,1.1,5.5,2.1,8.2,3s5.5,1.7,8.4,2.4a52.25,52.25,0,0,0,8.7,1.3C404.8,311.4,405,311.3,405.1,311.1Z" fill="#04294f"></path><path d="M587.9,110.1a66.818,66.818,0,0,0-14.2-8.7,31.572,31.572,0,0,0-5.4-2,39,39,0,0,0-5.7-1.3,20.363,20.363,0,0,0-6.5.2,10.91,10.91,0,0,0-3.5,1.5,8.674,8.674,0,0,0-2.8,3.2,8.385,8.385,0,0,0-.8,3.8,12.573,12.573,0,0,0,.5,3.3,2.51,2.51,0,0,0,4.9-1V109a5.134,5.134,0,0,1,.6-3.2,2.407,2.407,0,0,1,.8-.6,3.194,3.194,0,0,1,1.4-.3,13.608,13.608,0,0,1,4,.4c1.1.3,2.2.6,3.3,1a4.875,4.875,0,0,1,1.1.4,53.578,53.578,0,0,1,8.6,4.4,74.026,74.026,0,0,1,8.1,5.7,75.268,75.268,0,0,1,7.3,6.5,59.565,59.565,0,0,1,6.1,7.2l.1.2a21.586,21.586,0,0,1,2.2,3.9,8.792,8.792,0,0,1,1,3.6,2.211,2.211,0,0,1-.6,1.9,5.924,5.924,0,0,1-3.3,1.1H595a2.689,2.689,0,0,0-2.4,2.9,2.581,2.581,0,0,0,2.4,2.4,10.739,10.739,0,0,0,6.8-1.1,8.632,8.632,0,0,0,3.1-2.9,10.579,10.579,0,0,0,1.3-3.9,17,17,0,0,0-.9-6.7,38.745,38.745,0,0,0-2.5-5.5,47.408,47.408,0,0,0-4.2-6.1A86.368,86.368,0,0,0,587.9,110.1Z" fill="#f04e23"></path><path d="M568,136.6a131.85,131.85,0,0,0-27.3-16.8,92.007,92.007,0,0,0-11.4-4.3,62.928,62.928,0,0,0-11.3-2.3,41.187,41.187,0,0,0-6.1-.1,20.419,20.419,0,0,0-6.4,1.4,15.1,15.1,0,0,0-6,4,13.455,13.455,0,0,0-3.3,6.5,21.657,21.657,0,0,0,1.6,12.3,3.158,3.158,0,0,0,4,1.9,3.121,3.121,0,0,0,2-3.8v-.1c-.8-3.1-1-6.3-.2-8.6a6.257,6.257,0,0,1,4.6-4.3,20.753,20.753,0,0,1,8.6-.1,48.854,48.854,0,0,1,9.3,2.4c1.1.4,2.1.8,3.1,1.2a104.983,104.983,0,0,1,15,7.5A151.688,151.688,0,0,1,561,145a140.324,140.324,0,0,1,15.1,13.7,113.133,113.133,0,0,1,9,10.5q1.95,2.55,3.6,5.1a52.582,52.582,0,0,1,4.4,8.5,19.271,19.271,0,0,1,1.5,8.2,5.872,5.872,0,0,1-3.4,5.1,18.236,18.236,0,0,1-8.6,1.5h-.1a3.26,3.26,0,1,0-.5,6.5,23.443,23.443,0,0,0,12.3-.9,14.552,14.552,0,0,0,5.9-4.2,14.764,14.764,0,0,0,3.1-6.7,27.364,27.364,0,0,0-1.2-12.7,53.1,53.1,0,0,0-4.8-10.6,99.508,99.508,0,0,0-8.7-12.5A138.84,138.84,0,0,0,568,136.6Z" fill="#f04e23"></path><path d="M537.9,172.1A214.128,214.128,0,0,0,510.7,154a172.124,172.124,0,0,0-16.7-8.2,128.428,128.428,0,0,0-13.5-5,85.833,85.833,0,0,0-16.6-3.4,51.76,51.76,0,0,0-8.8-.2,36.57,36.57,0,0,0-9.2,1.8,21.871,21.871,0,0,0-8.6,5.5,19.744,19.744,0,0,0-4.9,9.1,27.523,27.523,0,0,0-.4,9.5,40.843,40.843,0,0,0,2.2,8.5,3.764,3.764,0,0,0,7.2-2.2v-.1c-1.1-4.7-1.5-9.6-.2-13.4a12.388,12.388,0,0,1,2.9-4.6,13.292,13.292,0,0,1,5-2.6,23.72,23.72,0,0,1,6.5-.9,53.639,53.639,0,0,1,7,.5,85.529,85.529,0,0,1,14.3,3.6c1.2.4,2.3.9,3.5,1.3a167.388,167.388,0,0,1,24.1,11.7A240.184,240.184,0,0,1,553,202.8a176.356,176.356,0,0,1,17.6,21c.6.8,1.2,1.7,1.7,2.5a90.883,90.883,0,0,1,7.1,13,52.956,52.956,0,0,1,2.3,6.7,23.72,23.72,0,0,1,.9,6.5c0,4.2-1.4,7.5-4.5,9.7s-7.9,3.2-12.7,3.3h-.1a3.953,3.953,0,0,0-.3,7.9h0a37.879,37.879,0,0,0,8.9-.2,24.592,24.592,0,0,0,9.1-3.1,18.13,18.13,0,0,0,4.1-3.2,16.319,16.319,0,0,0,1.7-2l.8-1.1a10.54,10.54,0,0,1,.7-1.1A22.061,22.061,0,0,0,593,253c.4-6.5-1.2-12.3-3.1-17.8a90.313,90.313,0,0,0-7.5-15.3q-3.6-5.85-7.8-11.4C564.1,194.7,551.4,182.8,537.9,172.1Z" fill="#f04e23"></path><path d="M441.5,295.6a.561.561,0,0,0-.9,0c-3.7,3.8-7.2,7.7-10.6,11.7-1.7,2-3.4,4-5.1,6.1-1.7,2-3.3,4.1-5,6.2q-4.95,6.15-9.6,12.6c-3.1,4.3-6,8.7-8.7,13.3-.1.2-.1.5.1.6a.6.6,0,0,0,.8,0h0a146.907,146.907,0,0,0,10.8-11.6c3.5-3.9,6.7-8.1,9.9-12.3l4.8-6.3c1.6-2.1,3.1-4.2,4.7-6.4,3.1-4.3,6.1-8.6,8.9-13.1A.605.605,0,0,0,441.5,295.6Z" fill="#f04e23"></path><path d="M492.2,667c1.1,5,2.3,10,3.5,14.9,1.2,5,2.4,9.9,3.7,14.9,2.5,9.9,5.1,19.8,8,29.6a.751.751,0,0,0,.9.4.569.569,0,0,0,.4-.7C507,716,505,706,502.9,696c-1.1-5-2.1-10-3.2-15l-3.3-15c-2.2-10-4.6-19.9-7.1-29.8-2.6-9.9-5.2-19.8-8.2-29.6a.548.548,0,0,0-.6-.4.56.56,0,0,0-.5.6c1.5,10.1,3.5,20.2,5.5,30.2C487.7,647.1,489.9,657,492.2,667Z" fill="#ffb400"></path><path d="M456.1,666.6c.7,5.8,1.5,11.5,2.3,17.3s1.6,11.5,2.4,17.3c1.7,11.5,3.4,23,5.5,34.5.1.3.4.6.7.5.4,0,.6-.3.6-.7h0c-.9-11.6-2-23.2-3.3-34.7-.6-5.8-1.2-11.6-1.9-17.3s-1.3-11.5-2.1-17.3c-1.4-11.6-2.9-23.1-4.6-34.6s-3.5-23-5.7-34.4a.441.441,0,0,0-.6-.4.56.56,0,0,0-.5.6h0c.7,11.6,1.8,23.2,3,34.8C453.1,643.5,454.6,655,456.1,666.6Z" fill="#ffb400"></path><path d="M423.9,689.5c.3,4.2.6,8.5,1,12.7.3,4.2.7,8.5,1.1,12.7.8,8.5,1.7,16.9,2.8,25.3a.669.669,0,0,0,.7.6.684.684,0,0,0,.7-.7c0-8.5-.3-17-.6-25.5-.2-4.2-.4-8.5-.6-12.7s-.5-8.5-.7-12.7c-.5-8.5-1.2-16.9-1.9-25.4-.8-8.5-1.7-16.9-3.1-25.3,0-.3-.3-.4-.5-.5a.634.634,0,0,0-.6.5h0c-.2,8.5,0,17,.3,25.5C422.7,672.6,423.3,681.1,423.9,689.5Z" fill="#ffb400"></path><path d="M392.5,743.3c.6-4.7.9-9.5,1.1-14.2.1-2.4.2-4.7.3-7.1,0-2.4.1-4.7.1-7.1.1-4.7,0-9.5-.2-14.2a136.484,136.484,0,0,0-1.4-14.2.5.5,0,0,0-1,0,133.848,133.848,0,0,0-1.4,14.2c-.2,4.7-.3,9.5-.2,14.2,0,2.4,0,4.7.1,7.1s.2,4.7.3,7.1c.2,4.7.5,9.5,1.1,14.2a.618.618,0,0,0,.8.5c.1,0,.3-.2.4-.5Z" fill="#ffb400"></path><path d="M358.5,695.9c.1-5.3.1-10.6-.3-16a.552.552,0,0,0-1.1-.1c-1.1,5.2-1.8,10.5-2.5,15.8-.6,5.3-1,10.6-1.3,15.8-.2,2.6-.3,5.3-.4,7.9-.1,2.7-.2,5.3-.3,8-.1,5.3-.2,10.6,0,15.9a.56.56,0,0,0,.5.6.688.688,0,0,0,.8-.5h0c.9-5.3,1.6-10.5,2.2-15.8.3-2.6.6-5.3.8-7.9.2-2.7.5-5.3.7-7.9C358.1,706.5,358.3,701.2,358.5,695.9Z" fill="#ffb400"></path><path d="M290.4,673.7c1.1-6,2.1-11.9,2.7-18a.713.713,0,0,0-.3-.6.517.517,0,0,0-.7.3c-2.1,5.7-3.8,11.5-5.4,17.4-1.6,5.8-3,11.7-4.3,17.6-.7,2.9-1.3,5.9-1.9,8.9s-1.2,5.9-1.8,8.9c-1.1,5.9-2.2,11.9-3,17.9,0,.4.2.7.6.7a.67.67,0,0,0,.7-.4c1.9-5.8,3.6-11.6,5.1-17.5.8-2.9,1.6-5.8,2.3-8.7s1.5-5.9,2.2-8.8C288,685.5,289.2,679.6,290.4,673.7Z" fill="#ffb400"></path><path d="M325.4,687.9a107.32,107.32,0,0,0,.2-12.7.664.664,0,0,0-.4-.5.569.569,0,0,0-.7.4,100.056,100.056,0,0,0-2.9,12.3c-.7,4.1-1.4,8.3-1.8,12.4-.3,2.1-.5,4.2-.7,6.2-.2,2.1-.4,4.2-.5,6.3-.3,4.2-.5,8.4-.5,12.6a.684.684,0,0,0,.7.7.56.56,0,0,0,.6-.5c1.1-4.1,1.9-8.2,2.7-12.3.4-2.1.7-4.1,1.1-6.2.3-2.1.6-4.1.9-6.2C324.6,696.3,325.1,692.1,325.4,687.9Z" fill="#ffb400"></path><path d="M439,205.8a32.277,32.277,0,0,0,2.4-5.8.972.972,0,0,0-.1-.9,1.278,1.278,0,0,0-1.7-.7h0a30.042,30.042,0,0,0-5.4,3.3,55.793,55.793,0,0,0-4.7,3.8,74.771,74.771,0,0,0-8.2,8.7c-2.5,3.1-4.9,6.3-7.1,9.6a65.25,65.25,0,0,0-5.8,10.7,1.392,1.392,0,0,0,.1,1.4,1.608,1.608,0,0,0,2.1.6h0a63.733,63.733,0,0,0,9.7-7.4,96.185,96.185,0,0,0,8.4-8.5,73.868,73.868,0,0,0,7.3-9.4Q437.65,208.5,439,205.8Z" fill="#04294f"></path><path d="M412.3,196.7c.5-.9.9-1.8,1.4-2.7.4-.9.9-1.8,1.3-2.8a1.392,1.392,0,0,0-.1-1.4,1.528,1.528,0,0,0-2.1-.7.1.1,0,0,0-.1.1,22.606,22.606,0,0,0-2.6,1.6c-.9.5-1.7,1.1-2.6,1.6-1.7,1.1-3.2,2.3-4.8,3.5a71.47,71.47,0,0,0-8.3,8.2,81.314,81.314,0,0,0-7.5,9,43.258,43.258,0,0,0-3.1,5.1c-.5.9-.9,1.8-1.3,2.7s-.9,1.8-1.3,2.8a1.569,1.569,0,0,0,.8,2.1,1.392,1.392,0,0,0,1.4-.1,22.606,22.606,0,0,0,2.6-1.6c.9-.5,1.7-1,2.6-1.6,1.7-1.1,3.2-2.3,4.8-3.5a71.47,71.47,0,0,0,8.3-8.2,81.314,81.314,0,0,0,7.5-9C410.2,200.1,411.3,198.4,412.3,196.7Z" fill="#04294f"></path><path d="M348.7,221.5a31.112,31.112,0,0,0,5.5-2.7,40.717,40.717,0,0,0,4.8-3.3,76.693,76.693,0,0,0,8.4-7.7c2.6-2.8,5.1-5.7,7.4-8.7a56.612,56.612,0,0,0,6.2-9.9,1.57,1.57,0,0,0-2.1-2.1,53.294,53.294,0,0,0-9.8,6.4,102.62,102.62,0,0,0-8.6,7.5,67.9,67.9,0,0,0-7.6,8.5,51.437,51.437,0,0,0-3.2,4.9,34.651,34.651,0,0,0-2.6,5.5,1.388,1.388,0,0,0,0,.9,2.186,2.186,0,0,0,.3.5A1.156,1.156,0,0,0,348.7,221.5Z" fill="#04294f"></path><path d="M484.7,232.4a33.851,33.851,0,0,0,2.1-6.1,1.337,1.337,0,0,0-.1-.9,1.286,1.286,0,0,0-1.8-.5h0a38.7,38.7,0,0,0-5.3,3.7,60.157,60.157,0,0,0-4.6,4.2,69.48,69.48,0,0,0-7.8,9.4,100.971,100.971,0,0,0-6.7,10.3,78.078,78.078,0,0,0-5.4,11.3,1.553,1.553,0,0,0,.9,2,1.4,1.4,0,0,0,1.4-.2,73.653,73.653,0,0,0,9.4-8.2,100.568,100.568,0,0,0,8.1-9.2,75.159,75.159,0,0,0,6.9-10.1A43.828,43.828,0,0,0,484.7,232.4Z" fill="#04294f"></path><path d="M465.3,212.2a1.559,1.559,0,0,0-2.3-1.9h0a71.173,71.173,0,0,0-9.6,7.8,116.509,116.509,0,0,0-8.3,8.9,98.685,98.685,0,0,0-7.2,9.8,57.686,57.686,0,0,0-2.9,5.5,30.715,30.715,0,0,0-2.2,6,1.333,1.333,0,0,0,1.9,1.5h0a27.035,27.035,0,0,0,5.3-3.5c1.6-1.3,3.2-2.6,4.7-4a69.482,69.482,0,0,0,8-9.1,98.577,98.577,0,0,0,6.9-10A67.5,67.5,0,0,0,465.3,212.2Z" fill="#04294f"></path><path d="M533,341.9a79.345,79.345,0,0,0-4.6,12.3,1.735,1.735,0,0,0,.3,1.4,1.569,1.569,0,0,0,2.2.1,81.9,81.9,0,0,0,8.9-9.7,112.544,112.544,0,0,0,7.5-10.6,82.736,82.736,0,0,0,6.2-11.3,64.351,64.351,0,0,0,2.4-6.1,47.744,47.744,0,0,0,1.7-6.5,1.344,1.344,0,0,0-.2-.9,1.28,1.28,0,0,0-1.8-.3,43.226,43.226,0,0,0-5.1,4.5c-1.5,1.6-3,3.3-4.4,4.9a83.461,83.461,0,0,0-7.2,10.7A103.961,103.961,0,0,0,533,341.9Z" fill="#04294f"></path><path d="M518.3,312.5a60.7,60.7,0,0,0-2.4,5.9,35.532,35.532,0,0,0-1.7,6.4.959.959,0,0,0,.2.9,1.3,1.3,0,0,0,1.8.4,40.627,40.627,0,0,0,5.1-4.2c1.5-1.5,3-3,4.4-4.7a83.23,83.23,0,0,0,7.3-10.3,117.179,117.179,0,0,0,6-11,71.431,71.431,0,0,0,4.6-11.9,1.735,1.735,0,0,0-.3-1.4,1.68,1.68,0,0,0-2.2-.2,77.383,77.383,0,0,0-8.9,9.2,105.6,105.6,0,0,0-7.5,10.1A65.319,65.319,0,0,0,518.3,312.5Z" fill="#04294f"></path><path d="M521.7,273.7c.9-1.9,1.8-3.8,2.6-5.8a32.635,32.635,0,0,0,1.8-6.3,1.27,1.27,0,0,0-1.1-1.5.959.959,0,0,0-.9.2,39.021,39.021,0,0,0-5.1,4,62.514,62.514,0,0,0-4.4,4.5,80.742,80.742,0,0,0-7.4,10,116.847,116.847,0,0,0-6.3,10.8,74.323,74.323,0,0,0-4.9,11.7,1.538,1.538,0,0,0,1,1.9,1.735,1.735,0,0,0,1.4-.3,76.514,76.514,0,0,0,9.1-8.9,122.992,122.992,0,0,0,7.7-9.8A80.085,80.085,0,0,0,521.7,273.7Z" fill="#04294f"></path><path d="M507.4,243a1.606,1.606,0,0,0-1-2,1.4,1.4,0,0,0-1.4.2,67.945,67.945,0,0,0-9.2,8.6,120.526,120.526,0,0,0-7.9,9.5,87.647,87.647,0,0,0-6.7,10.4,49.825,49.825,0,0,0-2.7,5.7,44.8,44.8,0,0,0-2,6.2.959.959,0,0,0,.2.9,1.436,1.436,0,0,0,1.8.5h0a28.26,28.26,0,0,0,5.2-3.9,46.737,46.737,0,0,0,4.5-4.4,79.174,79.174,0,0,0,7.6-9.7c2.3-3.4,4.5-6.9,6.5-10.5A78.85,78.85,0,0,0,507.4,243Z" fill="#04294f"></path><polygon points="282.9 595.8 258.1 588.3 249 602 274.3 609.7 282.9 595.8" fill="#04294f"></polygon><polygon points="285.3 592 293.9 578.2 269.7 570.8 260.6 584.5 285.3 592" fill="#04294f"></polygon><polygon points="219.5 593.1 244.7 600.7 253.8 586.9 229.1 579.4 219.5 593.1" fill="#04294f"></polygon><polygon points="265.3 569.5 241.2 562.1 231.7 575.7 256.3 583.1 265.3 569.5" fill="#04294f"></polygon><polygon points="314.4 600.8 322.5 586.9 298.2 579.5 289.6 593.3 314.4 600.8" fill="#04294f"></polygon><polygon points="343.5 609.7 351.2 595.6 326.8 588.2 318.7 602.1 343.5 609.7" fill="#04294f"></polygon><polygon points="372.6 618.5 379.9 604.3 355.5 596.9 347.7 611 372.6 618.5" fill="#04294f"></polygon><polygon points="345.6 614.9 337.8 629.1 363.2 636.8 370.5 622.5 345.6 614.9" fill="#04294f"></polygon><polygon points="316.4 606 308.2 620 333.5 627.8 341.3 613.6 316.4 606" fill="#04294f"></polygon><polygon points="287.3 597.1 278.6 611 303.9 618.7 312.1 604.7 287.3 597.1" fill="#04294f"></polygon><path d="M224.7,578.1l-9.5,13.7L192.8,585l-2.9,3.7,22.7,6.9-8,11.4,4.4,1.3,8-11.4,25.3,7.7-7.6,11.5,4.4,1.3,7.6-11.5,25.4,7.7-7.2,11.6,4.4,1.3,7.2-11.6,25.4,7.7L295,634.4l4.3,1.3,6.9-11.8,25.5,7.8-6.5,11.9,4.3,1.3L336,633l25.5,7.8-6.2,12,4.2,1.3,6.2-12,21.3,6.5,1.9-4-21.2-6.5,7.4-14.3,20.8,6.3,1.9-4-20.7-6.3,7.3-14.2,20.3,6.2,1.9-4-20.1-6.1,5.2-10.1-4.2-1.3-5.2,10.1L358,593l5.5-10-4.2-1.4-5.5,10-24.3-7.4,5.8-9.9L331,573l-5.8,9.8L301,575.4l6.1-9.8-4.4-1.3-6.1,9.8-24.1-7.3,6.4-9.7-4.4-1.3-6.4,9.7-24-7.3,6.7-9.6-4.4-1.3-6.7,9.6-20-6.1-2.9,3.7,20.3,6.2-9.5,13.6-21.2-6.5-2.9,3.7Zm24.3,24,9.1-13.8,24.8,7.5-8.7,13.9Zm54.9,16.7-25.3-7.7,8.7-13.9,24.8,7.6Zm29.6,9-25.3-7.7,8.2-14,24.9,7.6Zm29.7,9-25.4-7.7,7.8-14.2,25,7.6Zm-7.7-39.9,24.4,7.4-7.3,14.2-24.8-7.6Zm-28.7-8.7,24.4,7.4-7.7,14.1-24.8-7.5Zm-28.6-8.8,24.3,7.4-8.2,13.9-24.7-7.5Zm-28.5-8.7,24.2,7.4L285.3,592l-24.6-7.5ZM241.2,562l24.2,7.4-9,13.8-24.6-7.5Zm12.6,24.8-9.1,13.9-25.2-7.6,9.5-13.7Z" fill="#00aee0"></path><polygon points="199.3 565.8 199.3 565.8 196.5 569.5 196.5 569.5 199.3 565.8" fill="#00aee0"></polygon><polygon points="212.6 548.9 212.6 548.9 209.8 552.5 209.8 552.5 212.6 548.9" fill="#00aee0"></polygon><polygon points="186 582.9 186 582.9 183.5 586 183.5 586 186 582.9" fill="#00aee0"></polygon><path d="M622,251.9l-8-17.5c-2.7-5.8-5.3-11.6-8-17.5a.883.883,0,0,0-1.3-.4,1,1,0,0,0-.5,1.1c1.9,6.1,3.7,12.2,5.5,18.4l4.8,16.2-11,12.8c-4,4.7-8.1,9.4-12.1,14l-.4.5a4.7,4.7,0,0,0-.6,5.2l11.9,22.5a1.149,1.149,0,0,0,1.1.6,1.2,1.2,0,0,0,1.1-1.2l-1.1-21.7,8.4-13.8,9.7-15.8.3-.5A3.3,3.3,0,0,0,622,251.9Z" fill="#00aee0"></path><path d="M517.3,84.8c2-2.9,4-5.9,5.9-8.9s3.7-6.1,5.5-9.2a1.375,1.375,0,0,0-.6-1.9,1.357,1.357,0,0,0-1.5.1c-2.8,2.3-5.5,4.6-8.1,7.1-2.6,2.4-5.1,4.9-7.6,7.4s-4.9,5.1-7.3,7.6L500,90.9a14.96,14.96,0,0,0-1.1,1.3L494.8,91c-2.4-.7-4.9-1.4-7.3-2.1-2.5-.6-4.9-1.3-7.4-1.9s-4.9-1.2-7.4-1.8l-.5-.1-.3-.1a4.786,4.786,0,0,0-5.4,3.8c-.9,5.5-1.7,10.9-2.4,16.4-.3,2.7-.6,5.5-.9,8.3s-.5,5.5-.6,8.3a1.692,1.692,0,0,0,1.5,1.9,1.645,1.645,0,0,0,1.8-1.2c1.1-2.6,2-5.2,2.9-7.8s1.8-5.3,2.6-7.9c1.1-3.5,2.2-7.1,3.2-10.7.9.3,1.7.6,2.5.8,2.4.8,4.8,1.5,7.3,2.3,2.4.7,4.9,1.4,7.3,2.2s4.9,1.4,7.4,2l.3.1a5.133,5.133,0,0,0,5.3-1.8l3.3-4.2c1.1-1.4,2.1-2.8,3.2-4.2C513.2,90.6,515.2,87.7,517.3,84.8Z" fill="#00aee0"></path><path d="M442.3,93.5a60.233,60.233,0,0,0-4.2,6.1c-1.3,2.1-2.5,4.2-3.7,6.3s-2.3,4.3-3.4,6.5c-.9,1.8-1.7,3.6-2.5,5.5a37.184,37.184,0,0,0-3.4,1.9c-1.5.9-3,1.8-4.5,2.8s-2.9,2-4.4,3.1a45.922,45.922,0,0,0-4.1,3.6.967.967,0,0,0,0,1.4,1.135,1.135,0,0,0,.8.3,45.369,45.369,0,0,0,5.3-1.2c1.7-.5,3.4-1,5.1-1.6a41.918,41.918,0,0,0,4.9-2c1.7-.7,3.2-1.4,4.8-2.2a3.321,3.321,0,0,0,1.7-1.8v-.1c1-2.2,2-4.4,2.9-6.7s1.8-4.5,2.6-6.8,1.6-4.6,2.3-7q1.05-3.45,1.8-7.2a1.235,1.235,0,0,0-.9-1.4,2.812,2.812,0,0,0-1.1.5Z" fill="#00aee0"></path><path d="M572.7,122a1.424,1.424,0,0,0-1.6-1.4,1.381,1.381,0,0,0-1.3,1c-.8,2.3-1.5,4.5-2.2,6.8s-1.3,4.5-2,6.8c-.9,3.6-1.8,7.1-2.6,10.7-1.8.7-3.6,1.4-5.5,2.1-2.5,1-5.1,2-7.6,3s-5,2.1-7.5,3.2-5,2.2-7.4,3.3a5.943,5.943,0,0,0-3.5,5.4h0v7.9c0,2.6.1,5.3.1,7.9.1,4.5.2,9,.4,13.4-3.1,2.2-6.1,4.5-9.2,6.8l-5.7,4.5c-1.9,1.5-3.7,3.1-5.5,4.7a1.783,1.783,0,0,0-.1,2.6,1.82,1.82,0,0,0,2.1.5c2.3-.9,4.5-1.9,6.7-2.9s4.4-2,6.5-3.1c4.4-2.1,8.6-4.3,12.9-6.5a4.324,4.324,0,0,0,2.3-3.5v-.6c.4-5.2.7-10.5,1-15.8.1-2.6.2-5.3.3-7.9,0-1.4.1-2.7.1-4,1.3-.6,2.7-1.2,4-1.8,2.5-1.1,4.9-2.3,7.4-3.5,2.4-1.2,4.9-2.4,7.3-3.6s4.8-2.5,7.2-3.8l.7-.4a4.221,4.221,0,0,0,2.2-3.5c.3-4.7.6-9.4.7-14.2,0-2.4.1-4.7,0-7.1C572.7,126.7,572.8,124.4,572.7,122Z" fill="#00aee0"></path><path d="M260.8,645.2l7.4,2.2h0a41.656,41.656,0,0,0,5.9-6.7l-13.4-4.1A61.538,61.538,0,0,1,260.8,645.2Z" fill="#04294f"></path><path d="M260,653.4h0c.8-.4,1.6-1,2.4-1.5s1.5-1.1,2.3-1.6l1.2-.9,1.1-.9c.4-.4.9-.8,1.3-1.2l-7.4-2.3Q260.6,649.35,260,653.4Z" fill="#04294f"></path><path d="M597.3,5.4a2.7,2.7,0,1,0-2.7-2.7,2.689,2.689,0,0,0,2.7,2.7Z" fill="#00aee0"></path></g></g>
            </g>
        </g>
    </g>
    
</svg>